<svg width="78" height="63" viewBox="0 0 78 63" fill="none" xmlns="http://www.w3.org/2000/svg">
<path d="M0 48.5707H8.17148V50.8749H2.7035V53.637H7.39397V55.9363H2.7035V60.0568H0V48.5707Z" fill="#333331"/>
<path d="M10.6107 48.9429C10.6101 48.7594 10.6483 48.5778 10.7226 48.4098C10.797 48.2417 10.906 48.0908 11.0427 47.9669C11.1909 47.8361 11.3636 47.7353 11.5509 47.67C11.7571 47.5936 11.976 47.556 12.1962 47.5594C12.4165 47.5554 12.6355 47.593 12.8416 47.67C13.0285 47.7361 13.201 47.8368 13.3498 47.9669C13.5508 48.1571 13.689 48.403 13.7461 48.6724C13.8033 48.9418 13.7767 49.2221 13.6699 49.4762C13.5952 49.6412 13.4861 49.7886 13.3498 49.9089C13.1998 50.0373 13.0276 50.1378 12.8416 50.2057C12.6342 50.2771 12.4159 50.3129 12.1962 50.3114C11.9779 50.3124 11.761 50.2749 11.5559 50.2007C11.3686 50.1333 11.196 50.0308 11.0478 49.8988C10.9125 49.7756 10.8036 49.6268 10.7276 49.4611C10.652 49.2986 10.6121 49.1219 10.6107 48.9429ZM10.8445 51.2975H13.4972V60.0567H10.8445V51.2975Z" fill="#333331"/>
<path d="M17.0544 48.1581H19.6918V60.0567H17.0544V48.1581Z" fill="#333331"/>
<path d="M37.7219 60.0567H35.0642V55.3928C35.1063 54.8321 34.9789 54.2717 34.6983 53.7829C34.5734 53.615 34.4079 53.481 34.217 53.393C34.026 53.3051 33.8158 53.2662 33.6057 53.2798C33.3394 53.2775 33.0752 53.3271 32.8282 53.4257C32.6006 53.5161 32.3972 53.6573 32.2336 53.8382C32.0614 54.0289 31.9285 54.2511 31.8423 54.4923C31.7528 54.7669 31.7082 55.054 31.7102 55.3425V60.0567H29.0575V55.3928C29.0997 54.8321 28.9723 54.2717 28.6916 53.7829C28.5668 53.615 28.4013 53.481 28.2103 53.393C28.0194 53.3051 27.8092 53.2662 27.5991 53.2798C27.3288 53.2758 27.0606 53.3272 26.8114 53.4307C26.5776 53.5247 26.3702 53.6731 26.2067 53.8634C26.0299 54.0671 25.8983 54.3054 25.8204 54.5627C25.7293 54.8611 25.6847 55.1716 25.6883 55.4834V60.0718H23.056V51.3176H25.1751L25.3326 51.9264C25.693 51.6687 26.0859 51.459 26.5014 51.3025C26.9881 51.1201 27.5056 51.0313 28.0259 51.0409C28.5633 51.0314 29.0966 51.1343 29.5911 51.3428C30.0436 51.5326 30.4468 51.8216 30.7701 52.188C30.9584 52.0294 31.157 51.8832 31.3647 51.7503C31.5967 51.606 31.8417 51.4831 32.0964 51.383C32.6861 51.1497 33.3163 51.0334 33.9513 51.0409C34.5049 51.025 35.0561 51.1191 35.5724 51.3176C36.0322 51.5044 36.4413 51.7957 36.7666 52.1679C37.0998 52.5662 37.3455 53.0288 37.4882 53.5263C37.6585 54.1115 37.7407 54.7184 37.7321 55.3274L37.7219 60.0567Z" fill="#333331"/>
<path d="M41.1978 48.5707H42.5343V58.8644H48.2767V60.0417H41.1978V48.5707Z" fill="#333331"/>
<path d="M58.796 51.4585L53.6787 62.9999H52.2507L53.6838 59.9008L49.9487 51.4585H51.4021L54.3241 58.1298L54.3698 58.4015L57.3884 51.4585H58.796Z" fill="#333331"/>
<path d="M62.3889 52.6056H60.5899V51.4585H62.3889V51.0208C62.3875 50.6366 62.4302 50.2534 62.5159 49.8787C62.5936 49.5165 62.7458 49.1739 62.9631 48.8725C63.1875 48.571 63.4821 48.3276 63.8219 48.1631C64.2445 47.968 64.7077 47.8748 65.1737 47.8914H66.3679V48.9832H65.4481C65.1637 48.9734 64.8807 49.0267 64.6198 49.1391C64.4166 49.2392 64.2419 49.3879 64.1116 49.5718C63.9698 49.7692 63.8711 49.9936 63.8219 50.2309C63.7607 50.5016 63.7317 50.7786 63.7355 51.056V51.4535H66.3425V52.6006H63.7355V60.0517H62.4143L62.3889 52.6056Z" fill="#333331"/>
<path d="M68.5581 55.7552C68.553 55.1583 68.6701 54.5666 68.9025 54.0157C69.1348 53.4649 69.4775 52.9664 69.9098 52.5503C70.3393 52.1336 70.8468 51.8037 71.4039 51.5793C72.6042 51.103 73.9437 51.103 75.144 51.5793C75.702 51.8026 76.2111 52.1306 76.6432 52.5453C77.0719 52.9653 77.4126 53.4652 77.6454 54.0161C77.8783 54.567 77.9988 55.158 78 55.7552V55.9514L77.9746 56.1627H69.8438C69.888 56.6021 70.0211 57.0281 70.2351 57.4155C70.4363 57.7792 70.7033 58.1032 71.0227 58.3714C71.6535 58.9032 72.4556 59.1941 73.2841 59.1915C73.5909 59.1936 73.8966 59.1563 74.1938 59.0808C74.4764 59.0073 74.7481 58.8973 75.0017 58.7537C75.2445 58.6149 75.4682 58.4458 75.6675 58.2506C75.8686 58.0549 76.0398 57.8312 76.1756 57.5865H77.6087C77.2627 58.3703 76.6965 59.0392 75.9774 59.5135C75.5942 59.7641 75.1767 59.9589 74.7375 60.092C73.6435 60.4167 72.471 60.3671 71.4089 59.9512C70.8519 59.7268 70.3444 59.3969 69.9149 58.9802C69.4816 58.5713 69.136 58.0802 68.8986 57.5362C68.6631 56.9719 68.5472 56.3657 68.5581 55.7552ZM73.2841 52.2938C72.8555 52.2905 72.43 52.3656 72.0289 52.5151C71.6566 52.655 71.3125 52.8595 71.0126 53.1189C70.7113 53.3771 70.4598 53.6873 70.2706 54.0345C70.0726 54.3945 69.9401 54.7862 69.8793 55.1917H76.6584C76.6017 54.7891 76.4708 54.4003 76.2722 54.0446C76.083 53.6987 75.8355 53.3873 75.5404 53.1239C75.2427 52.8603 74.8981 52.6538 74.5241 52.5151C74.1282 52.3657 73.7077 52.2907 73.2841 52.2938Z" fill="#333331"/>
<path d="M57.0327 11.6068V24.8136L43.693 18.2127L57.0327 11.6068Z" fill="#1B75BC"/>
<path d="M72.8725 11.2698V25.1557C72.8722 25.9466 72.6677 26.7243 72.2784 27.4149C71.8891 28.1055 71.3278 28.686 70.6481 29.1014C69.9683 29.5168 69.1925 29.7533 68.3945 29.7883C67.5964 29.8232 66.8026 29.6557 66.0884 29.3014L57.0327 24.8186V11.6068L66.0884 7.1241C66.8026 6.76983 67.5964 6.60224 68.3945 6.63724C69.1925 6.67223 69.9683 6.90866 70.6481 7.32406C71.3278 7.73946 71.8891 8.32003 72.2784 9.01062C72.6677 9.70121 72.8722 10.4789 72.8725 11.2698Z" fill="#00AEEF"/>
<path d="M43.7032 18.2127L28.8695 25.5481C28.2254 25.8626 27.5109 26.0095 26.7935 25.9749C26.0762 25.9403 25.3795 25.7253 24.7693 25.3502C24.1591 24.9752 23.6555 24.4524 23.306 23.8312C22.9564 23.2101 22.7724 22.511 22.7714 21.7999V14.6155C22.7733 13.9048 22.9579 13.2063 23.3078 12.5859C23.6577 11.9654 24.1614 11.4433 24.7715 11.0688C25.3815 10.6944 26.0778 10.4798 26.7948 10.4455C27.5118 10.4111 28.2257 10.558 28.8695 10.8723L43.7032 18.2127Z" fill="white"/>
<path d="M56.621 24.8136V30.7302C56.625 31.4744 56.4808 32.212 56.1965 32.9009C55.9123 33.5897 55.4937 34.2164 54.9645 34.7449C54.4354 35.2734 53.8062 35.6935 53.113 35.981C52.4197 36.2685 51.676 36.4178 50.9244 36.4205H15.103C14.3516 36.4172 13.6081 36.2674 12.9152 35.9796C12.2222 35.6919 11.5933 35.2718 11.0643 34.7434C10.5353 34.215 10.1166 33.5887 9.83216 32.9001C9.54769 32.2115 9.40299 31.4742 9.40634 30.7302V5.69023C9.40299 4.94628 9.54769 4.20896 9.83216 3.52037C10.1166 2.83179 10.5353 2.20542 11.0643 1.67703C11.5933 1.14864 12.2222 0.728585 12.9152 0.440839C13.6081 0.153094 14.3516 0.00329617 15.103 0L50.9244 0C51.676 0.00263523 52.4197 0.151982 53.113 0.439495C53.8062 0.727008 54.4354 1.14704 54.9645 1.67556C55.4937 2.20408 55.9123 2.83071 56.1965 3.5196C56.4808 4.20848 56.625 4.94609 56.621 5.69023V11.6069L43.4084 18.2127L28.7018 10.8723C28.0601 10.5561 27.3473 10.4079 26.6313 10.4418C25.9154 10.4756 25.2201 10.6905 24.6118 11.0657C24.0034 11.441 23.5023 11.9643 23.1561 12.5857C22.8099 13.2071 22.6303 13.9059 22.6342 14.6155V21.8C22.6294 22.51 22.8084 23.2094 23.1543 23.8315C23.5001 24.4536 24.0011 24.9775 24.6096 25.3534C25.2181 25.7293 25.9137 25.9445 26.6301 25.9786C27.3465 26.0127 28.0597 25.8645 28.7018 25.5482L43.3932 18.2127L56.621 24.8136Z" fill="#27AAE1"/>
</svg>
